External Loads File
version=1
nRows=62
nColumns=13
Range=5.000000e-03-10 seconds
endheader
time 	forceRightX 	forceRightY 	forceRightZ 	pointRightX 	pointRightY 	pointRightZ 	forceLeftX 	forceLeftY 	forceLeftZ 	pointLeftX 	pointLeftY 	pointLeftZ 		
7.505000 -141.295516 595.178285 -0.000000 0.381853 0.290916 -0.099691 116.905820 31.549551 -0.000000 0.087152 0.350222 -0.340095
7.510000 -130.994940 606.929042 -0.000000 0.378983 0.280296 -0.100259 114.150422 27.019047 -0.000000 0.090099 0.360513 -0.340161
7.515000 -118.006554 619.431910 -0.000000 0.376038 0.269833 -0.100461 110.341588 21.938622 -0.000000 0.093589 0.370617 -0.340296
7.520000 -101.531490 632.402653 -0.000000 0.372190 0.259581 -0.100288 105.704285 16.229409 -0.000000 0.097670 0.380665 -0.340646
7.525000 -82.201170 645.025260 -0.000000 0.367795 0.249593 -0.100125 100.365916 10.013408 -0.000000 0.102282 0.390510 -0.340538
7.530000 -60.272920 656.418746 -0.000000 0.362943 0.239959 -0.099952 94.386899 3.303792 -0.000000 0.107379 0.400284 -0.340752
7.535000 -36.427402 665.606948 -0.000000 0.357512 0.230642 -0.099799 87.757145 -3.846262 -0.000000 0.113118 0.409611 -0.340767
7.540000 -11.461580 671.679259 -0.000000 0.351742 0.221761 -0.099670 80.421421 -11.377687 -0.000000 0.119215 0.418848 -0.340802
7.545000 14.370490 673.877990 -0.000000 0.345307 0.213233 -0.099360 72.268019 -19.247149 -0.000000 0.125895 0.427746 -0.341097
7.550000 38.993314 671.677719 -0.000000 0.338779 0.205123 -0.099387 63.255490 -27.139650 -0.000000 0.132987 0.436193 -0.340845
7.555000 62.417200 664.761611 -0.000000 0.332004 0.197704 -0.099381 53.413699 -34.960749 -0.000000 0.140964 0.444192 -0.341405
7.560000 83.283978 653.103719 -0.000000 0.324954 0.190773 -0.099342 42.972936 -42.554478 -0.000000 0.149048 0.451756 -0.341986
7.565000 100.635994 636.944150 -0.000000 0.317588 0.184341 -0.099284 32.258110 -49.910870 -0.000000 0.156790 0.458938 -0.341371
7.570000 116.197544 616.318079 -0.000000 0.309943 0.178469 -0.099221 21.396337 -57.149884 -0.000000 0.165308 0.465728 -0.341514
7.575000 128.405072 591.981538 -0.000000 0.302119 0.173190 -0.099110 10.764573 -64.097148 -0.000000 0.173821 0.471802 -0.341663
7.580000 138.944207 564.253141 -0.000000 0.294084 0.168445 -0.098871 0.458946 -70.511418 -0.000000 0.182888 0.477388 -0.341524
7.585000 147.455341 533.917753 -0.000000 0.285738 0.164397 -0.098659 -9.209554 -75.949167 -0.000000 0.191969 0.482412 -0.341587
7.590000 154.855050 501.426847 -0.000000 0.277000 0.160968 -0.098586 -18.083707 -79.953778 -0.000000 0.201217 0.486754 -0.341615
7.595000 161.191731 467.340686 -0.000000 0.267927 0.158126 -0.098756 -25.905375 -82.160632 -0.000000 0.210357 0.490663 -0.341798
7.600000 166.544923 432.041441 -0.000000 0.258784 0.155933 -0.098678 -32.453023 -82.351332 -0.000000 0.219568 0.493745 -0.341909
7.605000 171.089032 395.633996 -0.000000 0.249501 0.154394 -0.098598 -37.622668 -80.421746 -0.000000 0.228750 0.496355 -0.341978
7.610000 174.645493 358.105679 -0.000000 0.240183 0.153518 -0.098616 -41.392230 -76.358061 -0.000000 0.237944 0.498265 -0.342167
7.615000 176.772508 319.393849 -0.000000 0.230888 0.153285 -0.098589 -43.842501 -70.188059 -0.000000 0.246999 0.499693 -0.342182
7.620000 176.990757 279.448213 -0.000000 0.221646 0.153849 -0.098591 -45.191500 -61.924218 -0.000000 0.255728 0.500322 -0.342218
7.625000 175.126137 238.184591 -0.000000 0.212469 0.154949 -0.098657 -45.842630 -51.493869 -0.000000 0.264363 0.500363 -0.342231
7.630000 170.686645 196.034169 -0.000000 0.203518 0.156719 -0.098735 -46.206808 -38.846783 -0.000000 0.272771 0.499677 -0.342288
7.635000 163.578585 153.595150 -0.000000 0.194665 0.159051 -0.098754 -46.818677 -23.841237 -0.000000 0.280910 0.498303 -0.342429
7.640000 153.798097 111.904697 -0.000000 0.186223 0.162127 -0.098892 -48.225780 -6.329442 -0.000000 0.288765 0.496098 -0.342611
7.645000 141.728827 72.117999 -0.000000 0.178179 0.165733 -0.099048 -50.997845 13.841010 -0.000000 0.296325 0.493256 -0.342904
7.650000 128.043086 35.372484 -0.000000 0.170398 0.169806 -0.099162 -55.655263 36.754429 -0.000000 0.303572 0.489864 -0.343195
7.655000 113.550158 2.658827 -0.000000 0.162749 0.174437 -0.099168 -62.580629 62.419693 -0.000000 0.310499 0.485563 -0.343530
7.660000 99.029855 -25.033190 -0.000000 0.155313 0.179677 -0.099237 -72.036968 90.700713 -0.000000 0.317116 0.480432 -0.343788
7.665000 85.248800 -46.924830 -0.000000 0.148134 0.185505 -0.099277 -84.132863 121.385730 -0.000000 0.323424 0.474504 -0.344121
7.670000 72.965298 -62.471793 -0.000000 0.141250 0.191717 -0.099279 -98.899613 154.130900 -0.000000 0.329291 0.467913 -0.344353
7.675000 62.790621 -71.621779 -0.000000 0.134635 0.198513 -0.099327 -115.989211 188.670064 -0.000000 0.334863 0.460802 -0.344708
7.680000 55.272954 -74.665739 -0.000000 0.128339 0.205771 -0.099294 -134.908630 224.646003 -0.000000 0.340115 0.453087 -0.344810
7.685000 50.729542 -72.376477 -0.000000 0.122251 0.213434 -0.099263 -154.541938 261.882072 -0.000000 0.345041 0.444149 -0.344823
7.690000 49.627425 -65.623374 -0.000000 0.116624 0.221654 -0.099231 -174.754625 299.441960 -0.000000 0.349769 0.435423 -0.344941
7.695000 51.857383 -55.703037 -0.000000 0.111187 0.230227 -0.099354 -194.481735 336.857375 -0.000000 0.354239 0.426319 -0.344784
7.700000 57.144529 -43.860503 -0.000000 0.106519 0.239350 -0.099224 -213.300851 373.306752 -0.000000 0.358161 0.416693 -0.344731
7.705000 64.927380 -31.255321 -0.000000 0.102382 0.248750 -0.099088 -230.864390 408.054168 -0.000000 0.361607 0.406813 -0.344714
7.710000 74.473803 -18.865571 -0.000000 0.098821 0.258397 -0.099005 -246.941416 440.528478 -0.000000 0.364723 0.396890 -0.344620
7.715000 84.971794 -7.672569 -0.000000 0.095782 0.268279 -0.099010 -260.352517 470.991990 -0.000000 0.367360 0.386279 -0.344522
7.720000 95.700168 1.913323 -0.000000 0.093411 0.278236 -0.098998 -272.421993 498.638149 -0.000000 0.369571 0.375948 -0.344477
7.725000 105.929026 8.998888 -0.000000 0.091623 0.288572 -0.099022 -281.151026 524.750644 -0.000000 0.371349 0.365098 -0.344500
7.730000 114.985867 13.352767 -0.000000 0.090421 0.299098 -0.099079 -287.169162 549.243057 -0.000000 0.372635 0.354163 -0.344465
7.735000 122.234054 14.888817 -0.000000 0.089847 0.309772 -0.099173 -290.311808 572.373722 -0.000000 0.373338 0.343242 -0.344404
7.740000 127.163434 13.788630 -0.000000 0.089929 0.320474 -0.099291 -290.109069 594.391596 -0.000000 0.373527 0.332281 -0.344350
7.745000 129.455321 10.439706 -0.000000 0.090649 0.331230 -0.099413 -285.902519 615.467328 -0.000000 0.373119 0.321260 -0.344325
7.750000 128.997650 5.362589 -0.000000 0.092286 0.341937 -0.099360 -277.183235 635.556205 -0.000000 0.372087 0.310091 -0.344237
7.755000 125.861091 -0.646717 -0.000000 0.094178 0.352694 -0.099615 -264.970388 653.904532 -0.000000 0.370640 0.299345 -0.344472
7.760000 120.267747 -7.185438 -0.000000 0.096734 0.363275 -0.099862 -248.917275 670.389442 -0.000000 0.368482 0.288726 -0.343908
7.765000 112.501194 -13.875104 -0.000000 0.099897 0.373866 -0.100042 -229.071676 684.650822 -0.000000 0.365727 0.278428 -0.343788
7.770000 102.898111 -20.442875 -0.000000 0.103763 0.384154 -0.100222 -205.471828 696.241745 -0.000000 0.362465 0.268167 -0.343645
7.775000 91.856284 -26.603623 -0.000000 0.108134 0.394223 -0.100476 -179.081558 704.452446 -0.000000 0.358622 0.258332 -0.343464
7.780000 79.730146 -32.328034 -0.000000 0.113211 0.403937 -0.100418 -149.975767 708.988939 -0.000000 0.354275 0.248748 -0.343290
7.785000 66.834570 -37.597214 -0.000000 0.118736 0.413427 -0.100143 -118.809615 709.599300 -0.000000 0.349384 0.239453 -0.343072
7.790000 53.483312 -42.392813 -0.000000 0.124678 0.422551 -0.100819 -87.239550 706.148248 -0.000000 0.344077 0.230638 -0.342797
7.795000 39.831768 -46.901701 -0.000000 0.131196 0.431462 -0.100965 -54.914884 699.017632 -0.000000 0.338289 0.222033 -0.342623
7.800000 26.150742 -51.102369 -0.000000 0.138152 0.440032 -0.101104 -23.543274 688.431078 -0.000000 0.332024 0.213924 -0.342471
7.805000 12.717613 -54.987396 -0.000000 0.145395 0.448200 -0.101438 5.908958 674.815860 -0.000000 0.325423 0.206183 -0.342309
7.810000 -0.237614 -58.517464 -0.000000 0.153311 0.456022 -0.101654 33.579406 658.581278 -0.000000 0.318521 0.198952 -0.342211
